<?xml version="1.0" encoding="UTF-8" standalone="no"?>
<!DOCTYPE svg PUBLIC "-//W3C//DTD SVG 1.1//EN"
 "http://www.w3.org/Graphics/SVG/1.1/DTD/svg11.dtd">
<!-- Generated by graphviz version 14.1.4 (20260321.0153)
 -->
<!-- Title: TeamWorkstreams Pages: 1 -->
<svg width="1263pt" height="1104pt"
 viewBox="0.00 0.00 1263.00 1104.00" xmlns="http://www.w3.org/2000/svg" xmlns:xlink="http://www.w3.org/1999/xlink">
<g id="graph0" class="graph" transform="scale(1 1) rotate(0) translate(4 1100.25)">
<title>TeamWorkstreams</title>
<polygon fill="white" stroke="none" points="-4,4 -4,-1100.25 1259,-1100.25 1259,4 -4,4"/>
<g id="clust1" class="cluster">
<title>cluster_phase1</title>
<path fill="#1b6acb" stroke="#14508f" stroke-width="2" d="M20,-756.25C20,-756.25 1235,-756.25 1235,-756.25 1241,-756.25 1247,-762.25 1247,-768.25 1247,-768.25 1247,-1076.25 1247,-1076.25 1247,-1082.25 1241,-1088.25 1235,-1088.25 1235,-1088.25 20,-1088.25 20,-1088.25 14,-1088.25 8,-1082.25 8,-1076.25 8,-1076.25 8,-768.25 8,-768.25 8,-762.25 14,-756.25 20,-756.25"/>
<text xml:space="preserve" text-anchor="middle" x="191.12" y="-1069.05" font-family="Helvetica,sans-Serif" font-size="16.00" fill="#ffffff">PHASE 1 &#160;— &#160;Foundation (Parallel Workstreams)</text>
</g>
<g id="clust2" class="cluster">
<title>cluster_w1</title>
<path fill="#ebf5ff" stroke="#1b6acb" stroke-width="2" d="M28,-764.25C28,-764.25 384,-764.25 384,-764.25 390,-764.25 396,-770.25 396,-776.25 396,-776.25 396,-1043.75 396,-1043.75 396,-1049.75 390,-1055.75 384,-1055.75 384,-1055.75 28,-1055.75 28,-1055.75 22,-1055.75 16,-1049.75 16,-1043.75 16,-1043.75 16,-776.25 16,-776.25 16,-770.25 22,-764.25 28,-764.25"/>
<text xml:space="preserve" text-anchor="middle" x="67.12" y="-1039.4" font-family="Helvetica,sans-Serif" font-size="13.00" fill="#333333">Data Modeling</text>
</g>
<g id="clust3" class="cluster">
<title>cluster_w2</title>
<path fill="#fff8eb" stroke="#e8820c" stroke-width="2" d="M435,-764.25C435,-764.25 839,-764.25 839,-764.25 845,-764.25 851,-770.25 851,-776.25 851,-776.25 851,-1043.75 851,-1043.75 851,-1049.75 845,-1055.75 839,-1055.75 839,-1055.75 435,-1055.75 435,-1055.75 429,-1055.75 423,-1049.75 423,-1043.75 423,-1043.75 423,-776.25 423,-776.25 423,-770.25 429,-764.25 435,-764.25"/>
<text xml:space="preserve" text-anchor="middle" x="490.25" y="-1039.4" font-family="Helvetica,sans-Serif" font-size="13.00" fill="#333333">Monte Carlo Engine</text>
</g>
<g id="clust4" class="cluster">
<title>cluster_w3</title>
<path fill="#fff0eb" stroke="#ff3621" stroke-width="2" d="M890,-764.25C890,-764.25 1227,-764.25 1227,-764.25 1233,-764.25 1239,-770.25 1239,-776.25 1239,-776.25 1239,-1043.75 1239,-1043.75 1239,-1049.75 1233,-1055.75 1227,-1055.75 1227,-1055.75 890,-1055.75 890,-1055.75 884,-1055.75 878,-1049.75 878,-1043.75 878,-1043.75 878,-776.25 878,-776.25 878,-770.25 884,-764.25 890,-764.25"/>
<text xml:space="preserve" text-anchor="middle" x="924.62" y="-1039.4" font-family="Helvetica,sans-Serif" font-size="13.00" fill="#333333">Genie Space</text>
</g>
<g id="clust5" class="cluster">
<title>cluster_phase2</title>
<path fill="#2d8c3c" stroke="#1e6128" stroke-width="2" d="M205,-379.25C205,-379.25 768,-379.25 768,-379.25 774,-379.25 780,-385.25 780,-391.25 780,-391.25 780,-705 780,-705 780,-711 774,-717 768,-717 768,-717 205,-717 205,-717 199,-717 193,-711 193,-705 193,-705 193,-391.25 193,-391.25 193,-385.25 199,-379.25 205,-379.25"/>
<text xml:space="preserve" text-anchor="middle" x="391.5" y="-697.8" font-family="Helvetica,sans-Serif" font-size="16.00" fill="#ffffff">PHASE 2 &#160;— &#160;Orchestration (AgentBricks Supervisor)</text>
</g>
<g id="clust6" class="cluster">
<title>cluster_w4</title>
<path fill="#f0f7eb" stroke="#2d8c3c" stroke-width="2" d="M213,-387.25C213,-387.25 760,-387.25 760,-387.25 766,-387.25 772,-393.25 772,-399.25 772,-399.25 772,-672.5 772,-672.5 772,-678.5 766,-684.5 760,-684.5 760,-684.5 213,-684.5 213,-684.5 207,-684.5 201,-678.5 201,-672.5 201,-672.5 201,-399.25 201,-399.25 201,-393.25 207,-387.25 213,-387.25"/>
<text xml:space="preserve" text-anchor="middle" x="276.88" y="-668.15" font-family="Helvetica,sans-Serif" font-size="13.00" fill="#333333">Multi&#45;Agent Supervisor</text>
</g>
<g id="clust7" class="cluster">
<title>cluster_phase3</title>
<path fill="#7b3fa0" stroke="#5c2d80" stroke-width="2" d="M116,-8C116,-8 744,-8 744,-8 750,-8 756,-14 756,-20 756,-20 756,-328 756,-328 756,-334 750,-340 744,-340 744,-340 116,-340 116,-340 110,-340 104,-334 104,-328 104,-328 104,-20 104,-20 104,-14 110,-8 116,-8"/>
<text xml:space="preserve" text-anchor="middle" x="299.88" y="-320.8" font-family="Helvetica,sans-Serif" font-size="16.00" fill="#ffffff">PHASE 3 &#160;— &#160;Unified Experience (Application Layer)</text>
</g>
<g id="clust8" class="cluster">
<title>cluster_w5</title>
<path fill="#f5eefa" stroke="#7b3fa0" stroke-width="2" d="M124,-16C124,-16 736,-16 736,-16 742,-16 748,-22 748,-28 748,-28 748,-295.5 748,-295.5 748,-301.5 742,-307.5 736,-307.5 736,-307.5 124,-307.5 124,-307.5 118,-307.5 112,-301.5 112,-295.5 112,-295.5 112,-28 112,-28 112,-22 118,-16 124,-16"/>
<text xml:space="preserve" text-anchor="middle" x="165" y="-291.15" font-family="Helvetica,sans-Serif" font-size="13.00" fill="#333333">Databricks App</text>
</g>
<!-- w1_header -->
<g id="node1" class="node">
<title>w1_header</title>
<path fill="#1b6acb" stroke="#14508f" stroke-width="1.5" d="M301,-1026.25C301,-1026.25 109,-1026.25 109,-1026.25 103,-1026.25 97,-1020.25 97,-1014.25 97,-1014.25 97,-1002.25 97,-1002.25 97,-996.25 103,-990.25 109,-990.25 109,-990.25 301,-990.25 301,-990.25 307,-990.25 313,-996.25 313,-1002.25 313,-1002.25 313,-1014.25 313,-1014.25 313,-1020.25 307,-1026.25 301,-1026.25"/>
<text xml:space="preserve" text-anchor="middle" x="205" y="-1003.8" font-family="Helvetica,sans-Serif" font-size="11.00" fill="white">Data Tables + Semantics</text>
</g>
<!-- w1_t1 -->
<g id="node2" class="node">
<title>w1_t1</title>
<path fill="#ffffff" stroke="#1b6acb" d="M109.5,-917.25C109.5,-917.25 36.5,-917.25 36.5,-917.25 30.5,-917.25 24.5,-911.25 24.5,-905.25 24.5,-905.25 24.5,-893.25 24.5,-893.25 24.5,-887.25 30.5,-881.25 36.5,-881.25 36.5,-881.25 109.5,-881.25 109.5,-881.25 115.5,-881.25 121.5,-887.25 121.5,-893.25 121.5,-893.25 121.5,-905.25 121.5,-905.25 121.5,-911.25 115.5,-917.25 109.5,-917.25"/>
<text xml:space="preserve" text-anchor="middle" x="73" y="-901" font-family="Helvetica,sans-Serif" font-size="10.00" fill="#333333">12 Hospital Tables</text>
<text xml:space="preserve" text-anchor="middle" x="73" y="-889.75" font-family="Helvetica,sans-Serif" font-size="10.00" fill="#333333">(Delta Lake)</text>
</g>
<!-- w1_header&#45;&gt;w1_t1 -->
<!-- w1_t2 -->
<g id="node3" class="node">
<title>w1_t2</title>
<path fill="#ffffff" stroke="#1b6acb" d="M233.62,-917.25C233.62,-917.25 176.38,-917.25 176.38,-917.25 170.38,-917.25 164.38,-911.25 164.38,-905.25 164.38,-905.25 164.38,-893.25 164.38,-893.25 164.38,-887.25 170.38,-881.25 176.38,-881.25 176.38,-881.25 233.62,-881.25 233.62,-881.25 239.62,-881.25 245.62,-887.25 245.62,-893.25 245.62,-893.25 245.62,-905.25 245.62,-905.25 245.62,-911.25 239.62,-917.25 233.62,-917.25"/>
<text xml:space="preserve" text-anchor="middle" x="205" y="-901" font-family="Helvetica,sans-Serif" font-size="10.00" fill="#333333">Synthetic Data</text>
<text xml:space="preserve" text-anchor="middle" x="205" y="-889.75" font-family="Helvetica,sans-Serif" font-size="10.00" fill="#333333">Generation</text>
</g>
<!-- w1_header&#45;&gt;w1_t2 -->
<!-- w1_t3 -->
<g id="node4" class="node">
<title>w1_t3</title>
<path fill="#ffffff" stroke="#1b6acb" d="M375.62,-917.25C375.62,-917.25 300.38,-917.25 300.38,-917.25 294.38,-917.25 288.38,-911.25 288.38,-905.25 288.38,-905.25 288.38,-893.25 288.38,-893.25 288.38,-887.25 294.38,-881.25 300.38,-881.25 300.38,-881.25 375.62,-881.25 375.62,-881.25 381.62,-881.25 387.62,-887.25 387.62,-893.25 387.62,-893.25 387.62,-905.25 387.62,-905.25 387.62,-911.25 381.62,-917.25 375.62,-917.25"/>
<text xml:space="preserve" text-anchor="middle" x="338" y="-901" font-family="Helvetica,sans-Serif" font-size="10.00" fill="#333333">6 UC Metric Views</text>
<text xml:space="preserve" text-anchor="middle" x="338" y="-889.75" font-family="Helvetica,sans-Serif" font-size="10.00" fill="#333333">(Semantic Layer)</text>
</g>
<!-- w1_header&#45;&gt;w1_t3 -->
<!-- w1_skills -->
<g id="node5" class="node">
<title>w1_skills</title>
<path fill="#d6eaff" stroke="#1b6acb" d="M257.88,-808.25C257.88,-808.25 154.12,-808.25 154.12,-808.25 148.12,-808.25 142.12,-802.25 142.12,-796.25 142.12,-796.25 142.12,-784.25 142.12,-784.25 142.12,-778.25 148.12,-772.25 154.12,-772.25 154.12,-772.25 257.88,-772.25 257.88,-772.25 263.88,-772.25 269.88,-778.25 269.88,-784.25 269.88,-784.25 269.88,-796.25 269.88,-796.25 269.88,-802.25 263.88,-808.25 257.88,-808.25"/>
<text xml:space="preserve" text-anchor="middle" x="206" y="-791.45" font-family="Helvetica,sans-Serif" font-size="9.00" fill="#555555">Skills: PySpark, Delta Lake,</text>
<text xml:space="preserve" text-anchor="middle" x="206" y="-781.7" font-family="Helvetica,sans-Serif" font-size="9.00" fill="#555555">Unity Catalog, SQL</text>
</g>
<!-- w1_t1&#45;&gt;w1_skills -->
<!-- w4_header -->
<g id="node16" class="node">
<title>w4_header</title>
<path fill="#2d8c3c" stroke="#1e6128" stroke-width="1.5" d="M685,-655C685,-655 313,-655 313,-655 307,-655 301,-649 301,-643 301,-643 301,-631 301,-631 301,-625 307,-619 313,-619 313,-619 685,-619 685,-619 691,-619 697,-625 697,-631 697,-631 697,-643 697,-643 697,-649 691,-655 685,-655"/>
<text xml:space="preserve" text-anchor="middle" x="499" y="-632.55" font-family="Helvetica,sans-Serif" font-size="11.00" fill="white">AgentBricks MAS &#160;— &#160;Orchestrate Phase 1 Components</text>
</g>
<!-- w1_skills&#45;&gt;w4_header -->
<g id="edge23" class="edge">
<title>w1_skills&#45;&gt;w4_header</title>
<path fill="none" stroke="#1b6acb" stroke-width="2.5" d="M254.42,-764.25C293.1,-744.29 348.64,-715.62 397.02,-690.64"/>
<polygon fill="#1b6acb" stroke="#1b6acb" stroke-width="2.5" points="398.28,-693.93 405.56,-686.23 395.07,-687.71 398.28,-693.93"/>
<text xml:space="preserve" text-anchor="middle" x="387.38" y="-726.75" font-family="Helvetica,sans-Serif" font-size="10.00" fill="#333333"> &#160;tables + semantics ready &#160;</text>
</g>
<!-- w2_header -->
<g id="node6" class="node">
<title>w2_header</title>
<path fill="#e8820c" stroke="#b86709" stroke-width="1.5" d="M722,-1026.25C722,-1026.25 530,-1026.25 530,-1026.25 524,-1026.25 518,-1020.25 518,-1014.25 518,-1014.25 518,-1002.25 518,-1002.25 518,-996.25 524,-990.25 530,-990.25 530,-990.25 722,-990.25 722,-990.25 728,-990.25 734,-996.25 734,-1002.25 734,-1002.25 734,-1014.25 734,-1014.25 734,-1020.25 728,-1026.25 722,-1026.25"/>
<text xml:space="preserve" text-anchor="middle" x="626" y="-1003.8" font-family="Helvetica,sans-Serif" font-size="11.00" fill="white">Simulation Engine + UC Functions</text>
</g>
<!-- w2_t1 -->
<g id="node7" class="node">
<title>w2_t1</title>
<path fill="#ffffff" stroke="#e8820c" d="M523.25,-917.25C523.25,-917.25 442.75,-917.25 442.75,-917.25 436.75,-917.25 430.75,-911.25 430.75,-905.25 430.75,-905.25 430.75,-893.25 430.75,-893.25 430.75,-887.25 436.75,-881.25 442.75,-881.25 442.75,-881.25 523.25,-881.25 523.25,-881.25 529.25,-881.25 535.25,-887.25 535.25,-893.25 535.25,-893.25 535.25,-905.25 535.25,-905.25 535.25,-911.25 529.25,-917.25 523.25,-917.25"/>
<text xml:space="preserve" text-anchor="middle" x="483" y="-901" font-family="Helvetica,sans-Serif" font-size="10.00" fill="#333333">5 Simulation Models</text>
<text xml:space="preserve" text-anchor="middle" x="483" y="-889.75" font-family="Helvetica,sans-Serif" font-size="10.00" fill="#333333">(applyInPandas)</text>
</g>
<!-- w2_header&#45;&gt;w2_t1 -->
<!-- w2_t2 -->
<g id="node8" class="node">
<title>w2_t2</title>
<path fill="#ffffff" stroke="#e8820c" d="M661.75,-917.25C661.75,-917.25 590.25,-917.25 590.25,-917.25 584.25,-917.25 578.25,-911.25 578.25,-905.25 578.25,-905.25 578.25,-893.25 578.25,-893.25 578.25,-887.25 584.25,-881.25 590.25,-881.25 590.25,-881.25 661.75,-881.25 661.75,-881.25 667.75,-881.25 673.75,-887.25 673.75,-893.25 673.75,-893.25 673.75,-905.25 673.75,-905.25 673.75,-911.25 667.75,-917.25 661.75,-917.25"/>
<text xml:space="preserve" text-anchor="middle" x="626" y="-901" font-family="Helvetica,sans-Serif" font-size="10.00" fill="#333333">Distribution Fitting</text>
<text xml:space="preserve" text-anchor="middle" x="626" y="-889.75" font-family="Helvetica,sans-Serif" font-size="10.00" fill="#333333">(scipy + Delta)</text>
</g>
<!-- w2_header&#45;&gt;w2_t2 -->
<!-- w2_t3 -->
<g id="node9" class="node">
<title>w2_t3</title>
<path fill="#ffffff" stroke="#e8820c" d="M830.75,-917.25C830.75,-917.25 729.25,-917.25 729.25,-917.25 723.25,-917.25 717.25,-911.25 717.25,-905.25 717.25,-905.25 717.25,-893.25 717.25,-893.25 717.25,-887.25 723.25,-881.25 729.25,-881.25 729.25,-881.25 830.75,-881.25 830.75,-881.25 836.75,-881.25 842.75,-887.25 842.75,-893.25 842.75,-893.25 842.75,-905.25 842.75,-905.25 842.75,-911.25 836.75,-917.25 830.75,-917.25"/>
<text xml:space="preserve" text-anchor="middle" x="780" y="-901" font-family="Helvetica,sans-Serif" font-size="10.00" fill="#333333">UC Functions</text>
<text xml:space="preserve" text-anchor="middle" x="780" y="-889.75" font-family="Helvetica,sans-Serif" font-size="10.00" fill="#333333">(trigger, check, list_dists)</text>
</g>
<!-- w2_header&#45;&gt;w2_t3 -->
<!-- w2_skills -->
<g id="node10" class="node">
<title>w2_skills</title>
<path fill="#fff0d6" stroke="#e8820c" d="M554.62,-808.25C554.62,-808.25 443.38,-808.25 443.38,-808.25 437.38,-808.25 431.38,-802.25 431.38,-796.25 431.38,-796.25 431.38,-784.25 431.38,-784.25 431.38,-778.25 437.38,-772.25 443.38,-772.25 443.38,-772.25 554.62,-772.25 554.62,-772.25 560.62,-772.25 566.62,-778.25 566.62,-784.25 566.62,-784.25 566.62,-796.25 566.62,-796.25 566.62,-802.25 560.62,-808.25 554.62,-808.25"/>
<text xml:space="preserve" text-anchor="middle" x="499" y="-791.45" font-family="Helvetica,sans-Serif" font-size="9.00" fill="#555555">Skills: Python, NumPy, SciPy,</text>
<text xml:space="preserve" text-anchor="middle" x="499" y="-781.7" font-family="Helvetica,sans-Serif" font-size="9.00" fill="#555555">PySpark, UC Functions</text>
</g>
<!-- w2_t1&#45;&gt;w2_skills -->
<!-- w2_skills&#45;&gt;w4_header -->
<g id="edge24" class="edge">
<title>w2_skills&#45;&gt;w4_header</title>
<path fill="none" stroke="#e8820c" stroke-width="2.5" d="M499,-764.25C499,-746.24 499,-721.15 499,-698.07"/>
<polygon fill="#e8820c" stroke="#e8820c" stroke-width="2.5" points="502.5,-698.28 499,-688.28 495.5,-698.28 502.5,-698.28"/>
<text xml:space="preserve" text-anchor="middle" x="567.62" y="-726.75" font-family="Helvetica,sans-Serif" font-size="10.00" fill="#333333"> &#160;engine + UC functions ready &#160;</text>
</g>
<!-- w3_header -->
<g id="node11" class="node">
<title>w3_header</title>
<path fill="#ff3621" stroke="#cc2a1a" stroke-width="1.5" d="M1147,-1026.25C1147,-1026.25 955,-1026.25 955,-1026.25 949,-1026.25 943,-1020.25 943,-1014.25 943,-1014.25 943,-1002.25 943,-1002.25 943,-996.25 949,-990.25 955,-990.25 955,-990.25 1147,-990.25 1147,-990.25 1153,-990.25 1159,-996.25 1159,-1002.25 1159,-1002.25 1159,-1014.25 1159,-1014.25 1159,-1020.25 1153,-1026.25 1147,-1026.25"/>
<text xml:space="preserve" text-anchor="middle" x="1051" y="-1003.8" font-family="Helvetica,sans-Serif" font-size="11.00" fill="white">QnA on Women&#39;s Health Data</text>
</g>
<!-- w3_t1 -->
<g id="node12" class="node">
<title>w3_t1</title>
<path fill="#ffffff" stroke="#ff3621" d="M947.88,-917.25C947.88,-917.25 898.12,-917.25 898.12,-917.25 892.12,-917.25 886.12,-911.25 886.12,-905.25 886.12,-905.25 886.12,-893.25 886.12,-893.25 886.12,-887.25 892.12,-881.25 898.12,-881.25 898.12,-881.25 947.88,-881.25 947.88,-881.25 953.88,-881.25 959.88,-887.25 959.88,-893.25 959.88,-893.25 959.88,-905.25 959.88,-905.25 959.88,-911.25 953.88,-917.25 947.88,-917.25"/>
<text xml:space="preserve" text-anchor="middle" x="923" y="-901" font-family="Helvetica,sans-Serif" font-size="10.00" fill="#333333">Genie Space</text>
<text xml:space="preserve" text-anchor="middle" x="923" y="-889.75" font-family="Helvetica,sans-Serif" font-size="10.00" fill="#333333">Configuration</text>
</g>
<!-- w3_header&#45;&gt;w3_t1 -->
<!-- w3_t2 -->
<g id="node13" class="node">
<title>w3_t2</title>
<path fill="#ffffff" stroke="#ff3621" d="M1087.12,-917.25C1087.12,-917.25 1014.88,-917.25 1014.88,-917.25 1008.88,-917.25 1002.88,-911.25 1002.88,-905.25 1002.88,-905.25 1002.88,-893.25 1002.88,-893.25 1002.88,-887.25 1008.88,-881.25 1014.88,-881.25 1014.88,-881.25 1087.12,-881.25 1087.12,-881.25 1093.12,-881.25 1099.12,-887.25 1099.12,-893.25 1099.12,-893.25 1099.12,-905.25 1099.12,-905.25 1099.12,-911.25 1093.12,-917.25 1087.12,-917.25"/>
<text xml:space="preserve" text-anchor="middle" x="1051" y="-901" font-family="Helvetica,sans-Serif" font-size="10.00" fill="#333333">Sample Questions</text>
<text xml:space="preserve" text-anchor="middle" x="1051" y="-889.75" font-family="Helvetica,sans-Serif" font-size="10.00" fill="#333333">+ Instructions</text>
</g>
<!-- w3_header&#45;&gt;w3_t2 -->
<!-- w3_t3 -->
<g id="node14" class="node">
<title>w3_t3</title>
<path fill="#ffffff" stroke="#ff3621" d="M1219.38,-917.25C1219.38,-917.25 1154.62,-917.25 1154.62,-917.25 1148.62,-917.25 1142.62,-911.25 1142.62,-905.25 1142.62,-905.25 1142.62,-893.25 1142.62,-893.25 1142.62,-887.25 1148.62,-881.25 1154.62,-881.25 1154.62,-881.25 1219.38,-881.25 1219.38,-881.25 1225.38,-881.25 1231.38,-887.25 1231.38,-893.25 1231.38,-893.25 1231.38,-905.25 1231.38,-905.25 1231.38,-911.25 1225.38,-917.25 1219.38,-917.25"/>
<text xml:space="preserve" text-anchor="middle" x="1187" y="-901" font-family="Helvetica,sans-Serif" font-size="10.00" fill="#333333">AI/BI Dashboard</text>
<text xml:space="preserve" text-anchor="middle" x="1187" y="-889.75" font-family="Helvetica,sans-Serif" font-size="10.00" fill="#333333">(Lakeview)</text>
</g>
<!-- w3_header&#45;&gt;w3_t3 -->
<!-- w3_skills -->
<g id="node15" class="node">
<title>w3_skills</title>
<path fill="#ffe0d9" stroke="#ff3621" d="M982.12,-808.25C982.12,-808.25 897.88,-808.25 897.88,-808.25 891.88,-808.25 885.88,-802.25 885.88,-796.25 885.88,-796.25 885.88,-784.25 885.88,-784.25 885.88,-778.25 891.88,-772.25 897.88,-772.25 897.88,-772.25 982.12,-772.25 982.12,-772.25 988.12,-772.25 994.12,-778.25 994.12,-784.25 994.12,-784.25 994.12,-796.25 994.12,-796.25 994.12,-802.25 988.12,-808.25 982.12,-808.25"/>
<text xml:space="preserve" text-anchor="middle" x="940" y="-791.45" font-family="Helvetica,sans-Serif" font-size="9.00" fill="#555555">Skills: SQL, Genie API,</text>
<text xml:space="preserve" text-anchor="middle" x="940" y="-781.7" font-family="Helvetica,sans-Serif" font-size="9.00" fill="#555555">Lakeview Dashboards</text>
</g>
<!-- w3_t1&#45;&gt;w3_skills -->
<!-- w3_skills&#45;&gt;w4_header -->
<g id="edge25" class="edge">
<title>w3_skills&#45;&gt;w4_header</title>
<path fill="none" stroke="#ff3621" stroke-width="2.5" d="M881.62,-764.25C874.7,-761.47 867.72,-758.75 861,-756.25 796.91,-732.44 725.53,-708.57 663.21,-688.57"/>
<polygon fill="#ff3621" stroke="#ff3621" stroke-width="2.5" points="664.65,-685.36 654.06,-685.65 662.52,-692.03 664.65,-685.36"/>
<text xml:space="preserve" text-anchor="middle" x="850.01" y="-726.75" font-family="Helvetica,sans-Serif" font-size="10.00" fill="#333333"> &#160;Genie Space ready &#160;</text>
</g>
<!-- w4_t1 -->
<g id="node17" class="node">
<title>w4_t1</title>
<path fill="#ffffff" stroke="#2d8c3c" d="M306.5,-543.12C306.5,-543.12 221.5,-543.12 221.5,-543.12 215.5,-543.12 209.5,-537.12 209.5,-531.12 209.5,-531.12 209.5,-519.12 209.5,-519.12 209.5,-513.12 215.5,-507.12 221.5,-507.12 221.5,-507.12 306.5,-507.12 306.5,-507.12 312.5,-507.12 318.5,-513.12 318.5,-519.12 318.5,-519.12 318.5,-531.12 318.5,-531.12 318.5,-537.12 312.5,-543.12 306.5,-543.12"/>
<text xml:space="preserve" text-anchor="middle" x="264" y="-526.88" font-family="Helvetica,sans-Serif" font-size="10.00" fill="#333333">Supervisor Router</text>
<text xml:space="preserve" text-anchor="middle" x="264" y="-515.62" font-family="Helvetica,sans-Serif" font-size="10.00" fill="#333333">(Intent Classification)</text>
</g>
<!-- w4_header&#45;&gt;w4_t1 -->
<!-- w4_t2 -->
<g id="node18" class="node">
<title>w4_t2</title>
<path fill="#ffffff" stroke="#2d8c3c" d="M474.38,-546C474.38,-546 373.62,-546 373.62,-546 367.62,-546 361.62,-540 361.62,-534 361.62,-534 361.62,-516.25 361.62,-516.25 361.62,-510.25 367.62,-504.25 373.62,-504.25 373.62,-504.25 474.38,-504.25 474.38,-504.25 480.38,-504.25 486.38,-510.25 486.38,-516.25 486.38,-516.25 486.38,-534 486.38,-534 486.38,-540 480.38,-546 474.38,-546"/>
<text xml:space="preserve" text-anchor="middle" x="424" y="-532.5" font-family="Helvetica,sans-Serif" font-size="10.00" fill="#333333">4 Sub&#45;Agents</text>
<text xml:space="preserve" text-anchor="middle" x="424" y="-521.25" font-family="Helvetica,sans-Serif" font-size="10.00" fill="#333333">(Genie, Checker, Trigger,</text>
<text xml:space="preserve" text-anchor="middle" x="424" y="-510" font-family="Helvetica,sans-Serif" font-size="10.00" fill="#333333">Distribution Catalog)</text>
</g>
<!-- w4_header&#45;&gt;w4_t2 -->
<!-- w4_t3 -->
<g id="node19" class="node">
<title>w4_t3</title>
<path fill="#ffffff" stroke="#2d8c3c" d="M596.12,-543.12C596.12,-543.12 541.88,-543.12 541.88,-543.12 535.88,-543.12 529.88,-537.12 529.88,-531.12 529.88,-531.12 529.88,-519.12 529.88,-519.12 529.88,-513.12 535.88,-507.12 541.88,-507.12 541.88,-507.12 596.12,-507.12 596.12,-507.12 602.12,-507.12 608.12,-513.12 608.12,-519.12 608.12,-519.12 608.12,-531.12 608.12,-531.12 608.12,-537.12 602.12,-543.12 596.12,-543.12"/>
<text xml:space="preserve" text-anchor="middle" x="569" y="-526.88" font-family="Helvetica,sans-Serif" font-size="10.00" fill="#333333">Model Serving</text>
<text xml:space="preserve" text-anchor="middle" x="569" y="-515.62" font-family="Helvetica,sans-Serif" font-size="10.00" fill="#333333">Endpoint</text>
</g>
<!-- w4_header&#45;&gt;w4_t3 -->
<!-- w4_t4 -->
<g id="node20" class="node">
<title>w4_t4</title>
<path fill="#ffffff" stroke="#2d8c3c" d="M752.38,-543.12C752.38,-543.12 663.62,-543.12 663.62,-543.12 657.62,-543.12 651.62,-537.12 651.62,-531.12 651.62,-531.12 651.62,-519.12 651.62,-519.12 651.62,-513.12 657.62,-507.12 663.62,-507.12 663.62,-507.12 752.38,-507.12 752.38,-507.12 758.38,-507.12 764.38,-513.12 764.38,-519.12 764.38,-519.12 764.38,-531.12 764.38,-531.12 764.38,-537.12 758.38,-543.12 752.38,-543.12"/>
<text xml:space="preserve" text-anchor="middle" x="708" y="-526.88" font-family="Helvetica,sans-Serif" font-size="10.00" fill="#333333">UC HTTP Connection</text>
<text xml:space="preserve" text-anchor="middle" x="708" y="-515.62" font-family="Helvetica,sans-Serif" font-size="10.00" fill="#333333">+ Secrets</text>
</g>
<!-- w4_header&#45;&gt;w4_t4 -->
<!-- w4_skills -->
<g id="node21" class="node">
<title>w4_skills</title>
<path fill="#dff0d8" stroke="#2d8c3c" d="M593,-431.25C593,-431.25 221,-431.25 221,-431.25 215,-431.25 209,-425.25 209,-419.25 209,-419.25 209,-407.25 209,-407.25 209,-401.25 215,-395.25 221,-395.25 221,-395.25 593,-395.25 593,-395.25 599,-395.25 605,-401.25 605,-407.25 605,-407.25 605,-419.25 605,-419.25 605,-425.25 599,-431.25 593,-431.25"/>
<text xml:space="preserve" text-anchor="middle" x="407" y="-414.45" font-family="Helvetica,sans-Serif" font-size="9.00" fill="#555555">Skills: Agent Bricks, UC Functions,</text>
<text xml:space="preserve" text-anchor="middle" x="407" y="-404.7" font-family="Helvetica,sans-Serif" font-size="9.00" fill="#555555">UC Connections, REST APIs, Databricks Jobs</text>
</g>
<!-- w4_t1&#45;&gt;w4_skills -->
<!-- w5_header -->
<g id="node22" class="node">
<title>w5_header</title>
<path fill="#7b3fa0" stroke="#5c2d80" stroke-width="1.5" d="M593,-278C593,-278 221,-278 221,-278 215,-278 209,-272 209,-266 209,-266 209,-254 209,-254 209,-248 215,-242 221,-242 221,-242 593,-242 593,-242 599,-242 605,-248 605,-254 605,-254 605,-266 605,-266 605,-272 599,-278 593,-278"/>
<text xml:space="preserve" text-anchor="middle" x="407" y="-255.55" font-family="Helvetica,sans-Serif" font-size="11.00" fill="white">Unified Experience &#160;— &#160;Workflows, Collaboration, Analysis</text>
</g>
<!-- w4_skills&#45;&gt;w5_header -->
<g id="edge26" class="edge">
<title>w4_skills&#45;&gt;w5_header</title>
<path fill="none" stroke="#2d8c3c" stroke-width="2.5" d="M407,-387.25C407,-369.24 407,-344.15 407,-321.07"/>
<polygon fill="#2d8c3c" stroke="#2d8c3c" stroke-width="2.5" points="410.5,-321.28 407,-311.28 403.5,-321.28 410.5,-321.28"/>
<text xml:space="preserve" text-anchor="middle" x="452.75" y="-349.75" font-family="Helvetica,sans-Serif" font-size="10.00" fill="#333333"> &#160;MAS endpoint live &#160;</text>
</g>
<!-- w5_t1 -->
<g id="node23" class="node">
<title>w5_t1</title>
<path fill="#ffffff" stroke="#7b3fa0" d="M207.62,-169C207.62,-169 132.38,-169 132.38,-169 126.38,-169 120.38,-163 120.38,-157 120.38,-157 120.38,-145 120.38,-145 120.38,-139 126.38,-133 132.38,-133 132.38,-133 207.62,-133 207.62,-133 213.62,-133 219.62,-139 219.62,-145 219.62,-145 219.62,-157 219.62,-157 219.62,-163 213.62,-169 207.62,-169"/>
<text xml:space="preserve" text-anchor="middle" x="170" y="-152.75" font-family="Helvetica,sans-Serif" font-size="10.00" fill="#333333">React SPA</text>
<text xml:space="preserve" text-anchor="middle" x="170" y="-141.5" font-family="Helvetica,sans-Serif" font-size="10.00" fill="#333333">(FastAPI Backend)</text>
</g>
<!-- w5_header&#45;&gt;w5_t1 -->
<!-- w5_t2 -->
<g id="node24" class="node">
<title>w5_t2</title>
<path fill="#ffffff" stroke="#7b3fa0" d="M375.75,-169C375.75,-169 274.25,-169 274.25,-169 268.25,-169 262.25,-163 262.25,-157 262.25,-157 262.25,-145 262.25,-145 262.25,-139 268.25,-133 274.25,-133 274.25,-133 375.75,-133 375.75,-133 381.75,-133 387.75,-139 387.75,-145 387.75,-145 387.75,-157 387.75,-157 387.75,-163 381.75,-169 375.75,-169"/>
<text xml:space="preserve" text-anchor="middle" x="325" y="-152.75" font-family="Helvetica,sans-Serif" font-size="10.00" fill="#333333">Agent Chat</text>
<text xml:space="preserve" text-anchor="middle" x="325" y="-141.5" font-family="Helvetica,sans-Serif" font-size="10.00" fill="#333333">(SSE Streaming to MAS)</text>
</g>
<!-- w5_header&#45;&gt;w5_t2 -->
<!-- w5_t3 -->
<g id="node25" class="node">
<title>w5_t3</title>
<path fill="#ffffff" stroke="#7b3fa0" d="M537,-169C537,-169 443,-169 443,-169 437,-169 431,-163 431,-157 431,-157 431,-145 431,-145 431,-139 437,-133 443,-133 443,-133 537,-133 537,-133 543,-133 549,-139 549,-145 549,-145 549,-157 549,-157 549,-163 543,-169 537,-169"/>
<text xml:space="preserve" text-anchor="middle" x="490" y="-152.75" font-family="Helvetica,sans-Serif" font-size="10.00" fill="#333333">Embedded Dashboards</text>
<text xml:space="preserve" text-anchor="middle" x="490" y="-141.5" font-family="Helvetica,sans-Serif" font-size="10.00" fill="#333333">+ Genie Space</text>
</g>
<!-- w5_header&#45;&gt;w5_t3 -->
<!-- w5_t4 -->
<g id="node26" class="node">
<title>w5_t4</title>
<path fill="#ffffff" stroke="#7b3fa0" d="M728,-169C728,-169 604,-169 604,-169 598,-169 592,-163 592,-157 592,-157 592,-145 592,-145 592,-139 598,-133 604,-133 604,-133 728,-133 728,-133 734,-133 740,-139 740,-145 740,-145 740,-157 740,-157 740,-163 734,-169 728,-169"/>
<text xml:space="preserve" text-anchor="middle" x="666" y="-152.75" font-family="Helvetica,sans-Serif" font-size="10.00" fill="#333333">Analysis Workflows</text>
<text xml:space="preserve" text-anchor="middle" x="666" y="-141.5" font-family="Helvetica,sans-Serif" font-size="10.00" fill="#333333">(Share, Matrices, Simulations)</text>
</g>
<!-- w5_header&#45;&gt;w5_t4 -->
<!-- w5_skills -->
<g id="node27" class="node">
<title>w5_skills</title>
<path fill="#e8d5f5" stroke="#7b3fa0" d="M504,-60C504,-60 132,-60 132,-60 126,-60 120,-54 120,-48 120,-48 120,-36 120,-36 120,-30 126,-24 132,-24 132,-24 504,-24 504,-24 510,-24 516,-30 516,-36 516,-36 516,-48 516,-48 516,-54 510,-60 504,-60"/>
<text xml:space="preserve" text-anchor="middle" x="318" y="-43.2" font-family="Helvetica,sans-Serif" font-size="9.00" fill="#555555">Skills: React, TypeScript, FastAPI,</text>
<text xml:space="preserve" text-anchor="middle" x="318" y="-33.45" font-family="Helvetica,sans-Serif" font-size="9.00" fill="#555555">Lakebase (Postgres), Databricks Apps SDK</text>
</g>
<!-- w5_t1&#45;&gt;w5_skills -->
</g>
</svg>
